<?xml version="1.0" encoding="UTF-8" standalone="no"?>
<!-- Created with Inkscape (http://www.inkscape.org/) -->

<svg
   xmlns:dc="http://purl.org/dc/elements/1.1/"
   xmlns:cc="http://creativecommons.org/ns#"
   xmlns:rdf="http://www.w3.org/1999/02/22-rdf-syntax-ns#"
   xmlns:svg="http://www.w3.org/2000/svg"
   xmlns="http://www.w3.org/2000/svg"
   xmlns:sodipodi="http://sodipodi.sourceforge.net/DTD/sodipodi-0.dtd"
   xmlns:inkscape="http://www.inkscape.org/namespaces/inkscape"
   width="233.05902mm"
   height="233.05902mm"
   viewBox="0 0 233.05902 233.05902"
   version="1.1"
   id="svg8"
   inkscape:version="0.92.4 (5da689c313, 2019-01-14)"
   sodipodi:docname="robber.svg">
  <defs
     id="defs2" />
  <sodipodi:namedview
     id="base"
     pagecolor="#ffffff"
     bordercolor="#666666"
     borderopacity="1.0"
     inkscape:pageopacity="0.0"
     inkscape:pageshadow="2"
     inkscape:zoom="0.98994949"
     inkscape:cx="646.18493"
     inkscape:cy="436.24374"
     inkscape:document-units="mm"
     inkscape:current-layer="layer1"
     showgrid="false"
     fit-margin-top="0"
     fit-margin-left="0"
     fit-margin-right="0"
     fit-margin-bottom="0"
     showguides="false"
     inkscape:window-width="2495"
     inkscape:window-height="1057"
     inkscape:window-x="57"
     inkscape:window-y="-8"
     inkscape:window-maximized="1" />
  <metadata
     id="metadata5">
    <rdf:RDF>
      <cc:Work
         rdf:about="">
        <dc:format>image/svg+xml</dc:format>
        <dc:type
           rdf:resource="http://purl.org/dc/dcmitype/StillImage" />
        <dc:title></dc:title>
      </cc:Work>
    </rdf:RDF>
  </metadata>
  <g
     inkscape:groupmode="layer"
     id="layer2"
     inkscape:label="Layer 2"
     transform="translate(14.950981,23.320282)" />
  <g
     inkscape:label="Layer 1"
     inkscape:groupmode="layer"
     id="layer1"
     transform="translate(136.35086,59.233216)">
    <g
       id="g1859"
       transform="matrix(2.414954,0,0,2.414954,17.663041,83.605992)"
       style="fill:#e6e6e6;fill-opacity:1">
      <path
         transform="matrix(0.26458333,0,0,0.26458333,-254.5648,-114.20528)"
         inkscape:connector-curvature="0"
         id="path1739"
         d="m 897.7353,239.3325 c -26.8046,-0.0869 -53.58892,1.82333 -80.16169,5.22338 -20.04675,2.50705 -39.9205,6.53033 -59.37944,11.91271 -11.51036,3.50453 -23.00633,7.14411 -33.94567,12.21851 -2.51125,0.16959 -1.29724,3.71225 -1.67208,5.31809 -0.74483,14.43734 6.01084,27.68516 10.63028,40.96939 2.78029,9.24338 2.24098,19.13261 1.7396,28.67324 -1.11291,15.67908 -4.70166,31.01505 -6.91268,46.5476 -1.23125,18.44897 -1.61403,37.21463 1.94734,55.44202 0.95115,3.22822 1.11399,6.80532 2.67825,9.74242 0.83432,4.4719 3.51401,8.44962 5.48875,12.52234 3.86687,7.14669 10.31301,12.82043 17.50208,16.48008 4.31717,1.51858 8.72614,3.64945 12.88339,5.06063 0.91727,1.27601 3.15051,0.92202 4.25468,2.26298 2.31605,1.70249 5.53265,2.40575 7.41929,4.49242 3.22781,1.23208 5.74869,3.82357 8.63069,5.65843 8.03663,6.09819 14.96487,13.62072 21.51506,21.22504 4.63318,6.70723 9.3631,13.83853 10.943,21.96983 -0.0421,1.84739 0.0546,4.09601 2.25508,4.63152 12.25714,6.42108 26.31506,8.05116 39.85793,9.71918 7.03637,0.63983 14.10219,1.22016 21.11122,1.87925 17.1679,-0.0627 34.37256,0.0469 51.50828,-1.06694 13.93651,-1.33388 28.19292,-2.77707 41.26404,-8.09786 2.47502,-1.63575 6.41934,-2.025 7.75174,-4.96297 0.1772,-3.13701 -0.0524,-6.37168 1.86966,-9.11324 6.25296,-14.58534 14.5005,-29.13438 27.697,-38.51485 1.6911,-0.38684 2.4242,-2.16546 4.2271,-2.61614 1.5076,-0.9956 2.8267,-1.86829 4.596,-2.26988 7.1582,-3.80374 15.289,-4.32335 23.1487,-5.63674 2.5733,-1.14955 5.4653,-1.80381 7.9204,-3.45831 8.5228,-4.18577 14.6847,-11.94373 18.2914,-20.59291 1.4068,-1.87582 1.1236,-4.27135 2.4187,-6.12116 3.2242,-11.56106 3.9254,-23.63701 3.6884,-35.59999 0.2907,-24.33502 -3.3116,-48.46861 -6.3485,-72.54276 -1.3208,-13.49436 -2.098,-27.58193 2.0376,-40.62984 0.8878,-1.17575 0.5423,-2.84334 1.531,-4.00411 0.024,-1.83861 1.4384,-3.17161 1.2252,-5.10206 1.8479,-3.38872 2.1086,-7.52699 3.321,-11.22379 1.4585,-6.29815 3.3019,-12.6884 3.4709,-19.1597 -1.8367,-2.12417 -5.1739,-2.45189 -7.6846,-3.56118 -1.4388,-0.85982 -3.071,-1.09761 -4.5901,-1.56357 -1.4792,-0.98021 -3.5336,-0.76127 -5.0905,-1.806 -24.4711,-8.25099 -49.7191,-14.12648 -75.26694,-17.88986 -30.48101,-4.66845 -61.33165,-6.82963 -92.17149,-6.4175 -0.53336,7.7e-4 -1.06672,0.002 -1.60007,0.002 z m 82.83251,95.87472 c 12.36121,0.004 24.81469,0.2652 36.77389,3.63319 1.9612,0.2058 3.4405,1.51422 5.4207,1.59218 1.3793,1.2413 3.632,0.5885 5.0646,1.9769 8.1277,3.65587 17.3571,9.01787 19.3546,18.47627 3.2188,15.80882 0.1584,32.24712 -4.7627,47.41054 -3.7915,11.96943 -12.7399,22.30575 -24.3724,27.26513 -18.84916,8.55654 -42.56343,5.47629 -57.94584,-8.61557 -8.65802,-7.61995 -14.76772,-17.80708 -19.48931,-28.24083 -3.20736,-7.24563 -3.83754,-15.16096 -3.49419,-22.97824 -0.301,-8.31915 1.94767,-16.83074 7.6437,-23.1354 6.12727,-7.36703 13.586,-14.82841 23.48387,-16.40756 4.05222,-0.83723 8.18653,-0.94406 12.32308,-0.97661 z m -159.4877,1.57343 c 9.39206,0.21215 19.60833,0.25797 27.72888,5.62884 7.25462,5.92049 14.65695,12.69049 17.98151,21.63541 4.35293,15.14483 2.32409,32.03847 -6.16351,45.42333 -5.67093,10.40161 -13.81111,19.76364 -24.08977,25.77171 -8.34028,4.87164 -17.96344,7.03549 -27.56901,6.66723 -9.79535,0.0464 -19.76355,-2.84449 -28.02884,-8.23869 -8.19611,-5.44402 -14.34393,-13.8872 -17.41231,-23.15064 -4.10546,-11.69073 -6.61946,-24.09728 -6.44778,-36.51578 0.55954,-7.15998 0.98912,-15.36474 6.60463,-20.62788 8.8434,-8.78761 21.45784,-12.29669 33.39549,-14.52857 7.92224,-1.37809 15.95191,-2.04439 24.00071,-2.06496 z m 74.19886,87.78758 c 0.95531,12.33859 0.31733,24.78516 0.52806,37.16454 0.002,13.57392 2.3e-4,27.14785 6.9e-4,40.72177 -4.12779,5.86969 -7.95485,12.30532 -13.67356,16.77801 -4.63943,3.26238 -11.73876,3.87111 -15.73529,-0.75959 -5.19946,-5.63447 -6.88914,-13.58163 -6.22961,-21.04353 -0.009,-13.98866 2.73638,-27.87159 7.40746,-41.03251 3.2414,-7.39355 6.96593,-14.72597 13.04715,-20.21193 4.59912,-4.16708 9.06072,-8.83128 14.63241,-11.66509 z m 12.39607,0.26931 c 5.29862,2.86511 9.84552,7.15559 14.25657,11.23795 13.62018,13.13379 17.98515,32.52109 20.18647,50.57542 0.37293,7.0971 1.08181,14.36317 -0.004,21.40682 -1.62855,5.98194 -5.23335,13.44657 -12.31419,13.81068 -4.75237,0.59351 -9.24324,-1.73349 -12.28657,-5.30428 -3.50792,-3.69136 -6.59663,-7.84421 -9.37943,-12.0804 -1.80443,-7.17679 -0.79843,-14.75388 -1.12557,-22.10103 0.13674,-19.13485 -0.26953,-38.34748 0.38571,-57.43665 0.0568,-0.0996 0.17518,-0.12556 0.28115,-0.10851 z"
         style="opacity:1;fill:#e6e6e6;fill-opacity:1;stroke:none;stroke-width:0.5414418;stroke-miterlimit:4;stroke-dasharray:none;stroke-opacity:1" />
    </g>
  </g>
</svg>
