<?xml version="1.0" encoding="UTF-8" standalone="no"?>
<!-- Created with Inkscape (http://www.inkscape.org/) -->

<svg
   xmlns:osb="http://www.openswatchbook.org/uri/2009/osb"
   xmlns:dc="http://purl.org/dc/elements/1.1/"
   xmlns:cc="http://creativecommons.org/ns#"
   xmlns:rdf="http://www.w3.org/1999/02/22-rdf-syntax-ns#"
   xmlns:svg="http://www.w3.org/2000/svg"
   xmlns="http://www.w3.org/2000/svg"
   xmlns:sodipodi="http://sodipodi.sourceforge.net/DTD/sodipodi-0.dtd"
   xmlns:inkscape="http://www.inkscape.org/namespaces/inkscape"
   width="12.598236mm"
   height="12.622643mm"
   viewBox="0 0 12.598078 12.622483"
   version="1.1"
   id="svg8"
   inkscape:version="0.92.4 (5da689c313, 2019-01-14)"
   sodipodi:docname="satellite.svg">
  <defs
     id="defs2">
    <inkscape:perspective
       sodipodi:type="inkscape:persp3d"
       inkscape:vp_x="15.142843 : -4.8264185 : 1"
       inkscape:vp_y="0 : 999.99984 : 0"
       inkscape:vp_z="37.321817 : -9.6592396 : 1"
       inkscape:persp3d-origin="13.763648 : 10.614995 : 1"
       id="perspective824" />
    <linearGradient
       id="linearGradient6291"
       osb:paint="solid">
      <stop
         style="stop-color:#ffffff;stop-opacity:1;"
         offset="0"
         id="stop6289" />
    </linearGradient>
  </defs>
  <sodipodi:namedview
     id="base"
     pagecolor="#ffffff"
     bordercolor="#666666"
     borderopacity="1.0"
     inkscape:pageopacity="0.0"
     inkscape:pageshadow="2"
     inkscape:zoom="2.0529932"
     inkscape:cx="-71.693344"
     inkscape:cy="54.004495"
     inkscape:document-units="px"
     inkscape:current-layer="layer1"
     showgrid="false"
     inkscape:window-width="1244"
     inkscape:window-height="1048"
     inkscape:window-x="61"
     inkscape:window-y="0"
     inkscape:window-maximized="0"
     inkscape:snap-page="false"
     units="mm"
     scale-x="1e-05"
     fit-margin-top="0"
     fit-margin-left="0"
     fit-margin-right="0"
     fit-margin-bottom="0"
     inkscape:pagecheckerboard="true" />
  <metadata
     id="metadata5">
    <rdf:RDF>
      <cc:Work
         rdf:about="">
        <dc:format>image/svg+xml</dc:format>
        <dc:type
           rdf:resource="http://purl.org/dc/dcmitype/StillImage" />
        <dc:title />
      </cc:Work>
    </rdf:RDF>
  </metadata>
  <g
     inkscape:groupmode="layer"
     id="layer2"
     inkscape:label="Board"
     transform="translate(-93.087661,-78.902095)" />
  <g
     inkscape:label="Layer 1"
     inkscape:groupmode="layer"
     id="layer1"
     transform="translate(-93.087661,-78.902095)">
    <g
       id="g1089"
       transform="matrix(0.60399956,0,0,0.60399956,58.894272,37.41135)"
       style="fill:#000000;fill-opacity:1">
      <path
         transform="matrix(0.26458,0,0,0.26458,84.791247,68.556254)"
         inkscape:connector-curvature="0"
         id="path1007"
         d="m -91.53709,55.23053 c -1.946721,0.38397 -1.115878,3.015055 -0.882594,4.338303 1.178425,3.864635 5.530045,6.807363 9.548438,6.061112 0.986704,-0.420341 0.736896,-2.124196 -0.522695,-1.716081 -3.675437,-0.01095 -7.416447,-2.968405 -7.403841,-6.840783 -0.190295,-0.456077 0.105536,-1.916249 -0.739308,-1.842551 z"
         style="opacity:1;fill:#000000;fill-opacity:1;stroke:none;stroke-width:0.36922601;stroke-miterlimit:4;stroke-dasharray:none;stroke-opacity:1" />
      <path
         transform="matrix(0.26458,0,0,0.26458,84.791247,68.556254)"
         inkscape:connector-curvature="0"
         id="path1009"
         d="m -96.09066,56.726636 c -1.999496,0.33955 -0.591721,2.78544 -0.400935,3.987149 1.564964,5.080701 6.533684,9.35671 11.974229,9.164994 1.088277,-0.11794 1.278757,-2.183793 -0.127815,-1.829097 -5.523569,-0.107737 -9.807374,-5.229519 -10.630155,-10.44247 -0.129452,-0.36916 -0.334854,-0.904346 -0.815324,-0.880576 z"
         style="opacity:1;fill:#000000;fill-opacity:1;stroke:none;stroke-width:0.36922601;stroke-miterlimit:4;stroke-dasharray:none;stroke-opacity:1" />
      <path
         transform="matrix(0.26458,0,0,0.26458,84.791247,68.556254)"
         inkscape:connector-curvature="0"
         id="path1011"
         d="m -100.1841,58.083491 c -1.92724,0.290664 -0.5733,2.658249 -0.39514,3.775478 1.927848,6.399638 7.88273,11.856285 14.688201,12.159664 1.112027,-0.14285 1.218788,-2.116702 -0.181632,-1.876187 -6.52735,-0.869582 -11.871429,-6.317908 -13.090253,-12.708155 -0.112915,-0.546605 -0.278413,-1.420142 -1.021176,-1.3508 z"
         style="opacity:1;fill:#000000;fill-opacity:1;stroke:none;stroke-width:0.36922601;stroke-miterlimit:4;stroke-dasharray:none;stroke-opacity:1" />
      <path
         transform="matrix(0.26458,0,0,0.26458,84.791247,68.556254)"
         inkscape:connector-curvature="0"
         id="path1013"
         d="m -61.146766,23.580222 c -2.807584,0.54737 -4.390254,3.440271 -6.490234,5.128842 -1.64982,1.47723 -3.175613,3.37706 -5.004353,4.517139 -0.665447,-0.593619 -2.10586,-1.365147 -1.878878,-2.36121 0.649848,-0.974889 2.199151,-1.831585 0.398282,-2.706556 -1.424859,-0.755887 -2.784964,-4.191347 -4.273743,-3.158675 -1.346145,1.449175 -2.97764,2.779787 -4.15669,4.297818 1.609349,1.507889 3.101866,3.297837 4.780273,4.639004 1.167971,-2.80822 3.63779,-0.834188 4.020466,0.835899 -3.104373,3.436932 -6.854835,6.367895 -9.513811,10.172319 -0.96742,2.766204 2.326605,4.492455 3.697211,6.352396 -2.163138,2.486208 -5.057177,4.469297 -6.762075,7.300244 0.100882,1.382324 1.687826,0.281035 2.097508,-0.335011 2.004572,-1.895253 3.922264,-3.879529 5.887553,-5.815573 1.807314,1.528865 3.630181,4.82729 6.477519,3.69452 3.804661,-2.752579 6.762159,-6.543518 10.216439,-9.713924 1.980448,1.469847 2.892676,2.843097 0.628984,4.425083 1.615801,1.502208 3.115561,3.288326 4.800455,4.622186 1.505328,-1.619284 3.294279,-3.122521 4.631604,-4.810545 -1.618517,-1.50484 -3.12126,-3.292292 -4.807854,-4.630259 -1.178863,2.822992 -3.62668,0.817319 -3.996088,-0.864005 3.093488,-3.452971 6.990836,-6.277428 9.55065,-10.167085 0.966797,-2.534472 -2.102916,-4.256121 -3.429292,-5.920076 -2.216675,-1.766915 -3.820823,-4.812202 -6.731312,-5.500513 l -0.135215,-0.0027 z m 0.05651,2.150652 c 0.62185,0.01288 2.931847,0.461934 1.642084,1.393181 -6.782294,7.147017 -13.768123,14.201369 -20.907138,20.936065 -1.524073,-1.245336 -0.796971,-3.673742 0.619396,-4.751516 5.858184,-5.993693 11.667524,-12.104501 18.052328,-17.534004 0.193957,-0.04523 0.395047,-0.05089 0.59333,-0.04373 z"
         style="opacity:1;fill:#000000;fill-opacity:1;stroke:none;stroke-width:0.36922601;stroke-miterlimit:4;stroke-dasharray:none;stroke-opacity:1" />
      <path
         transform="matrix(0.26458,0,0,0.26458,84.791247,68.556254)"
         inkscape:connector-curvature="0"
         id="path1015"
         d="m -52.672645,54.385607 c -2.033793,1.42184 -2.95638,2.973182 -0.379283,4.416589 0.966054,0.729734 1.776807,2.226864 2.914052,2.489446 1.599774,-1.428368 3.238959,-2.976197 4.56097,-4.587878 -1.608663,-1.506984 -3.100202,-3.296381 -4.777583,-4.636987 -0.772719,0.772943 -1.545437,1.545887 -2.318156,2.31883 z"
         style="opacity:1;fill:#000000;fill-opacity:1;stroke:none;stroke-width:0.36922601;stroke-miterlimit:4;stroke-dasharray:none;stroke-opacity:1" />
      <path
         transform="matrix(0.26458,0,0,0.26458,84.791247,68.556254)"
         inkscape:connector-curvature="0"
         id="path1017"
         d="m -62.372443,52.210064 c -1.676527,1.387473 -3.300965,3.02369 -4.667259,4.641696 1.60955,1.409677 2.979051,3.396106 4.767492,4.478227 1.686518,-1.475457 3.404308,-3.089391 4.804491,-4.756056 -1.643908,-1.412477 -3.102283,-3.18667 -4.904724,-4.363867 z"
         style="opacity:1;fill:#000000;fill-opacity:1;stroke:none;stroke-width:0.36922601;stroke-miterlimit:4;stroke-dasharray:none;stroke-opacity:1" />
      <path
         transform="matrix(0.26458,0,0,0.26458,84.791247,68.556254)"
         inkscape:connector-curvature="0"
         id="path1019"
         d="m -58.656396,60.361958 c -2.019842,1.431312 -3.059609,2.994128 -0.435933,4.455085 1.087297,0.560871 2.125836,3.343865 3.288887,2.28137 1.400214,-1.497598 3.068661,-2.889892 4.295929,-4.462025 -1.60732,-1.505393 -3.097202,-3.291773 -4.772873,-4.632277 -0.792003,0.785949 -1.584007,1.571898 -2.37601,2.357847 z"
         style="opacity:1;fill:#000000;fill-opacity:1;stroke:none;stroke-width:0.36922601;stroke-miterlimit:4;stroke-dasharray:none;stroke-opacity:1" />
      <path
         transform="matrix(0.26458,0,0,0.26458,84.791247,68.556254)"
         inkscape:connector-curvature="0"
         id="path1021"
         d="m -52.62421,66.384726 c -2.004063,1.446704 -3.042875,3.019329 -0.421677,4.478491 0.963707,0.7281 1.773333,2.222104 2.908011,2.483379 1.597512,-1.424058 3.227134,-2.968679 4.552225,-4.575097 -1.578524,-1.54804 -3.030597,-3.38481 -4.676676,-4.76682 -0.787295,0.793349 -1.574589,1.586698 -2.361883,2.380047 z"
         style="opacity:1;fill:#000000;fill-opacity:1;stroke:none;stroke-width:0.36922601;stroke-miterlimit:4;stroke-dasharray:none;stroke-opacity:1" />
      <path
         transform="matrix(0.26458,0,0,0.26458,84.791247,68.556254)"
         inkscape:connector-curvature="0"
         id="path1027"
         d="m -44.339117,69.825533 c -0.693528,0.632726 -1.340838,1.319324 -2.011646,1.977573 -0.918228,0.928565 -1.851477,1.843284 -2.748518,2.792223 -0.05852,0.18163 0.182135,0.284765 0.265559,0.419109 0.499722,0.534794 1.047641,1.02842 1.529529,1.57719 0.282144,0.226859 0.539136,0.491732 0.779576,0.764949 0.08392,0.10936 0.226263,0.170764 0.311688,0.289271 0.08691,0.119265 0.178839,0.218123 0.296882,0.311153 0.530333,0.504516 1.03071,1.044223 1.567833,1.542919 0.174871,0.03858 0.256929,-0.187765 0.385718,-0.269297 1.390054,-1.365094 2.752074,-2.759847 4.135179,-4.130362 0.117669,-0.153228 0.292517,-0.266995 0.378818,-0.438813 -0.175457,-0.283132 -0.460892,-0.492251 -0.684544,-0.741637 -0.466721,-0.47725 -0.963018,-0.9384 -1.399102,-1.438511 -0.299161,-0.231867 -0.560096,-0.521867 -0.816738,-0.801636 -0.09616,-0.131709 -0.25629,-0.219542 -0.364827,-0.34964 -0.520004,-0.493766 -1.00745,-1.023684 -1.540618,-1.502291 -0.02756,0.002 -0.05833,-0.01171 -0.08479,-0.0022 z"
         style="opacity:1;fill:#000000;fill-opacity:1;stroke:none;stroke-width:0.03263528;stroke-miterlimit:4;stroke-dasharray:none;stroke-opacity:1" />
      <path
         transform="matrix(0.26458,0,0,0.26458,84.791247,68.556254)"
         inkscape:connector-curvature="0"
         id="path1029"
         d="m -38.386073,63.885154 c -0.151799,0.02001 -0.206842,0.204736 -0.323573,0.284464 -0.256789,0.269763 -0.540782,0.520968 -0.791832,0.796811 -1.224492,1.207213 -2.443798,2.421655 -3.64137,3.655818 -0.05954,0.179539 0.179722,0.275563 0.26108,0.407451 1.405154,1.440297 2.824651,2.867256 4.268083,4.269172 0.11246,0.0892 0.282653,0.323035 0.430012,0.161195 1.556104,-1.53283 3.094248,-3.084429 4.613006,-4.654274 0.151943,-0.146769 -0.09241,-0.287343 -0.171606,-0.396587 -1.455275,-1.495559 -2.929267,-2.973952 -4.439081,-4.414525 -0.05998,-0.05021 -0.116422,-0.123331 -0.204719,-0.109525 z m -1.019496,1.003858 c -9e-5,-0.0021 0.0037,-0.0099 0,0 z"
         style="opacity:1;fill:#000000;fill-opacity:1;stroke:none;stroke-width:0.03263528;stroke-miterlimit:4;stroke-dasharray:none;stroke-opacity:1" />
      <path
         transform="matrix(0.26458,0,0,0.26458,84.791247,68.556254)"
         inkscape:connector-curvature="0"
         id="path1031"
         d="m -44.316403,57.914749 c -0.277579,0.112027 -0.431265,0.402297 -0.658891,0.586199 -1.321335,1.322861 -2.651978,2.636884 -3.959239,3.973535 -0.09428,0.09642 -0.276147,0.259161 -0.111591,0.380711 1.493571,1.54748 3.017304,3.066375 4.562877,4.561925 0.07058,0.08878 0.212309,0.194625 0.302293,0.06755 1.55488,-1.4937 3.070158,-3.028595 4.592963,-4.554433 0.166807,-0.071 0.104749,-0.281755 -0.01683,-0.366391 -1.338145,-1.405421 -2.726477,-2.7625 -4.106501,-4.126657 -0.184969,-0.17027 -0.352388,-0.363967 -0.552759,-0.515479 -0.01759,0.0026 -0.03472,-0.0098 -0.05232,-0.007 z m 4.729898,5.006564 c -0.01389,0.0032 0.01129,-0.0036 0,0 z"
         style="opacity:1;fill:#000000;fill-opacity:1;stroke:none;stroke-width:0.03263528;stroke-miterlimit:4;stroke-dasharray:none;stroke-opacity:1" />
      <path
         transform="matrix(0.26458,0,0,0.26458,84.791247,68.556254)"
         inkscape:connector-curvature="0"
         id="path1033"
         d="m -32.419537,58.014258 c -1.715884,1.381889 -3.182797,3.058982 -4.774556,4.582161 1.375139,1.70684 3.182189,3.235029 4.722757,4.873443 1.622227,-1.198018 2.995035,-2.920693 4.512834,-4.323879 1.007673,-0.77656 -0.953178,-1.511643 -1.315092,-2.236427 -1.040287,-0.942568 -1.969184,-2.161845 -3.145943,-2.895298 z"
         style="opacity:1;fill:#000000;fill-opacity:1;stroke:none;stroke-width:0.184613;stroke-miterlimit:4;stroke-dasharray:none;stroke-opacity:1" />
      <path
         transform="matrix(0.26458,0,0,0.26458,84.791247,68.556254)"
         inkscape:connector-curvature="0"
         id="path1035"
         d="m -40.765844,54.29182 c -0.750908,0.851565 -1.783955,1.586252 -2.366592,2.507525 1.58555,1.553627 3.100668,3.186593 4.753702,4.667594 1.285809,-0.888703 2.326733,-2.24692 3.505278,-3.316875 0.659719,-0.699835 2.046091,-1.49098 0.617292,-2.222577 -1.396033,-1.298167 -2.678323,-2.870706 -4.143424,-4.001922 -0.788752,0.788751 -1.577504,1.577503 -2.366256,2.366255 z"
         style="opacity:1;fill:#000000;fill-opacity:1;stroke:none;stroke-width:0.184613;stroke-miterlimit:4;stroke-dasharray:none;stroke-opacity:1" />
      <path
         transform="matrix(0.26458,0,0,0.26458,84.791247,68.556254)"
         inkscape:connector-curvature="0"
         id="path1037"
         d="m -46.706541,48.348096 c -0.752218,0.85144 -1.786449,1.585914 -2.370292,2.507188 1.577167,1.580082 3.154335,3.160165 4.731502,4.740247 1.709555,-1.378019 3.240421,-3.187992 4.881517,-4.731502 -1.37802,-1.709554 -3.187993,-3.240421 -4.731502,-4.881516 -0.910637,0.580958 -1.668382,1.61768 -2.511225,2.365583 z"
         style="opacity:1;fill:#000000;fill-opacity:1;stroke:none;stroke-width:0.184613;stroke-miterlimit:4;stroke-dasharray:none;stroke-opacity:1" />
      <path
         transform="matrix(0.26458,0,0,0.26458,84.791247,68.556254)"
         inkscape:connector-curvature="0"
         id="path1039"
         d="m -52.730654,42.328691 c -0.749592,0.852701 -1.780206,1.589279 -2.36222,2.511225 1.60819,1.579315 3.134754,3.251212 4.820973,4.745965 1.377506,-0.968045 2.496899,-2.407893 3.759005,-3.562351 1.062025,-0.694456 1.379067,-1.51852 0.130293,-2.222178 -1.342994,-1.246777 -2.574036,-2.763644 -3.986168,-3.843289 -0.787295,0.79021 -1.574589,1.580419 -2.361883,2.370628 z"
         style="opacity:1;fill:#000000;fill-opacity:1;stroke:none;stroke-width:0.184613;stroke-miterlimit:4;stroke-dasharray:none;stroke-opacity:1" />
      <path
         transform="matrix(0.26458,0,0,0.26458,84.791247,68.556254)"
         inkscape:connector-curvature="0"
         id="path1041"
         d="m -92.170938,2.8836989 c -0.752218,0.8514399 -1.786448,1.5859139 -2.370292,2.5071883 1.577168,1.5800825 3.154335,3.1601649 4.731503,4.7402468 1.709554,-1.378019 3.240421,-3.1879918 4.881516,-4.7315017 -1.37802,-1.7095543 -3.187992,-3.2404211 -4.731502,-4.88151625 -0.910637,0.58095855 -1.668382,1.61767975 -2.511225,2.36558285 z"
         style="opacity:1;fill:#000000;fill-opacity:1;stroke:none;stroke-width:0.184613;stroke-miterlimit:4;stroke-dasharray:none;stroke-opacity:1" />
      <path
         transform="matrix(0.26458,0,0,0.26458,84.791247,68.556254)"
         inkscape:connector-curvature="0"
         id="path1043"
         d="m -86.23024,8.8274235 c -0.750908,0.8515648 -1.783956,1.5862525 -2.366592,2.5075245 1.585549,1.553627 3.100667,3.186593 4.753701,4.667595 1.285809,-0.888703 2.326733,-2.246921 3.505278,-3.316876 0.659719,-0.699834 2.046091,-1.49098 0.617292,-2.222577 -1.396033,-1.2981669 -2.678323,-2.8707053 -4.143424,-4.0019221 -0.788752,0.7887518 -1.577503,1.5775037 -2.366255,2.3662556 z"
         style="opacity:1;fill:#000000;fill-opacity:1;stroke:none;stroke-width:0.184613;stroke-miterlimit:4;stroke-dasharray:none;stroke-opacity:1" />
      <path
         transform="matrix(0.26458,0,0,0.26458,84.791247,68.556254)"
         inkscape:connector-curvature="0"
         id="path1045"
         d="m -77.842562,12.549861 c -1.660044,1.417665 -3.250419,2.974655 -4.669277,4.632278 1.16628,1.618424 2.789744,2.943499 4.173197,4.402525 0.397651,0.74678 0.937122,0.218005 1.307031,-0.25998 1.315402,-1.389297 2.879304,-2.683795 4.01843,-4.150954 -1.616112,-1.516052 -3.073701,-3.287396 -4.817273,-4.626896 z"
         style="opacity:1;fill:#000000;fill-opacity:1;stroke:none;stroke-width:0.184613;stroke-miterlimit:4;stroke-dasharray:none;stroke-opacity:1" />
      <path
         transform="matrix(0.26458,0,0,0.26458,84.791247,68.556254)"
         inkscape:connector-curvature="0"
         id="path1047"
         d="m -74.260721,20.793916 c -0.752218,0.85144 -1.786449,1.585914 -2.370292,2.507188 1.577144,1.579994 3.154199,3.160077 4.731166,4.740247 1.596818,-1.298905 3.084567,-2.951227 4.535744,-4.491008 0.580549,-0.51986 -0.514555,-0.993865 -0.729344,-1.423146 -1.250266,-1.232252 -2.449484,-2.662662 -3.796982,-3.698864 -0.790097,0.788528 -1.580195,1.577055 -2.370292,2.365583 z"
         style="opacity:1;fill:#000000;fill-opacity:1;stroke:none;stroke-width:0.184613;stroke-miterlimit:4;stroke-dasharray:none;stroke-opacity:1" />
      <path
         transform="matrix(0.26458,0,0,0.26458,84.791247,68.556254)"
         inkscape:connector-curvature="0"
         id="path1049"
         d="m -83.834386,18.578347 c -1.668685,1.441474 -3.269902,3.014873 -4.70493,4.68744 1.373998,1.71689 3.072387,3.24226 4.670959,4.779937 0.741555,-0.285491 1.263042,-1.181052 1.910335,-1.688373 0.941768,-1.032432 2.130058,-1.948463 2.906937,-3.081474 -1.456466,-1.663918 -3.038771,-3.261304 -4.71603,-4.700557 l -0.05516,-3.36e-4 z"
         style="opacity:1;fill:#000000;fill-opacity:1;stroke:none;stroke-width:0.184613;stroke-miterlimit:4;stroke-dasharray:none;stroke-opacity:1" />
      <path
         transform="matrix(0.26458,0,0,0.26458,84.791247,68.556254)"
         inkscape:connector-curvature="0"
         id="path1051"
         d="m -86.23024,32.765117 c -0.750908,0.851565 -1.783956,1.586252 -2.366592,2.507525 1.585549,1.553627 3.100667,3.186593 4.753701,4.667594 1.285809,-0.888703 2.326733,-2.24692 3.505278,-3.316875 0.659719,-0.699835 2.046091,-1.49098 0.617292,-2.222577 -1.396033,-1.298167 -2.678323,-2.870706 -4.143424,-4.001922 -0.788752,0.788751 -1.577503,1.577503 -2.366255,2.366255 z"
         style="opacity:1;fill:#000000;fill-opacity:1;stroke:none;stroke-width:0.184613;stroke-miterlimit:4;stroke-dasharray:none;stroke-opacity:1" />
      <path
         transform="matrix(0.26458,0,0,0.26458,84.791247,68.556254)"
         inkscape:connector-curvature="0"
         id="path1053"
         d="m -89.902561,24.370376 c -1.562906,1.5893 -3.125723,3.178688 -4.688449,4.768164 1.307827,1.609537 2.979878,3.093824 4.505472,4.580815 0.509269,0.589354 0.974936,-0.552385 1.402162,-0.757185 1.19821,-1.247413 2.602075,-2.392287 3.607842,-3.775867 -1.441179,-1.709136 -3.129074,-3.209123 -4.685086,-4.816936 z"
         style="opacity:1;fill:#000000;fill-opacity:1;stroke:none;stroke-width:0.184613;stroke-miterlimit:4;stroke-dasharray:none;stroke-opacity:1" />
      <path
         transform="matrix(0.26458,0,0,0.26458,84.791247,68.556254)"
         inkscape:connector-curvature="0"
         id="path1055"
         d="m -98.198414,20.793916 c -0.752219,0.85144 -1.786449,1.585914 -2.370296,2.507188 1.577171,1.580083 3.154338,3.160165 4.731506,4.740247 1.709554,-1.378019 3.240421,-3.187992 4.881516,-4.731502 -1.378019,-1.709554 -3.187992,-3.240421 -4.731502,-4.881516 -0.910637,0.580959 -1.668382,1.61768 -2.511224,2.365583 z"
         style="opacity:1;fill:#000000;fill-opacity:1;stroke:none;stroke-width:0.184613;stroke-miterlimit:4;stroke-dasharray:none;stroke-opacity:1" />
      <path
         transform="matrix(0.26458,0,0,0.26458,84.791247,68.556254)"
         inkscape:connector-curvature="0"
         id="path1057"
         d="m -89.833272,12.551879 c -1.686973,1.455444 -3.191538,3.117371 -4.789355,4.670959 1.309907,1.619579 2.999851,3.101556 4.516907,4.611759 0.515144,0.582313 0.974463,-0.572902 1.406154,-0.786569 1.212444,-1.26219 2.565687,-2.445093 3.619995,-3.829563 -1.481907,-1.611119 -3.05269,-3.175228 -4.665576,-4.662886 l -0.07904,-0.0067 z"
         style="opacity:1;fill:#000000;fill-opacity:1;stroke:none;stroke-width:0.184613;stroke-miterlimit:4;stroke-dasharray:none;stroke-opacity:1" />
      <path
         transform="matrix(0.26458,0,0,0.26458,84.791247,68.556254)"
         inkscape:connector-curvature="0"
         id="path1059"
         d="m -98.173188,8.8859492 c -0.759715,0.8568825 -1.796452,1.5984728 -2.388792,2.5250148 1.592766,1.527009 3.047508,3.230429 4.774556,4.601669 1.750988,-1.27497 3.170662,-3.042541 4.765823,-4.528461 -0.01308,-0.850736 -1.404336,-1.5400457 -1.958574,-2.3232207 -0.949495,-0.8508576 -1.785379,-1.9763272 -2.804558,-2.6587482 -0.796152,0.794582 -1.592303,1.589164 -2.388455,2.3837461 z"
         style="opacity:1;fill:#000000;fill-opacity:1;stroke:none;stroke-width:0.184613;stroke-miterlimit:4;stroke-dasharray:none;stroke-opacity:1" />
      <path
         transform="matrix(0.26458,0,0,0.26458,84.791247,68.556254)"
         inkscape:connector-curvature="0"
         id="path1061"
         d="m -104.14046,14.8549 c -0.75091,0.851565 -1.78395,1.586252 -2.36659,2.507525 1.58555,1.553627 3.10067,3.186593 4.7537,4.667594 1.28581,-0.888703 2.326735,-2.24692 3.50528,-3.316875 0.659719,-0.699835 2.046091,-1.49098 0.617292,-2.222577 -1.396033,-1.298167 -2.678322,-2.870705 -4.143422,-4.001922 -0.78875,0.788752 -1.57751,1.577503 -2.36626,2.366255 z"
         style="opacity:1;fill:#000000;fill-opacity:1;stroke:none;stroke-width:0.184613;stroke-miterlimit:4;stroke-dasharray:none;stroke-opacity:1" />
    </g>
  </g>
</svg>
