<?xml version="1.0" encoding="UTF-8" standalone="no"?>
<!-- Created with Inkscape (http://www.inkscape.org/) -->

<svg
   xmlns:osb="http://www.openswatchbook.org/uri/2009/osb"
   xmlns:dc="http://purl.org/dc/elements/1.1/"
   xmlns:cc="http://creativecommons.org/ns#"
   xmlns:rdf="http://www.w3.org/1999/02/22-rdf-syntax-ns#"
   xmlns:svg="http://www.w3.org/2000/svg"
   xmlns="http://www.w3.org/2000/svg"
   xmlns:sodipodi="http://sodipodi.sourceforge.net/DTD/sodipodi-0.dtd"
   xmlns:inkscape="http://www.inkscape.org/namespaces/inkscape"
   width="22.363483mm"
   height="14.64068mm"
   viewBox="0 0 22.363202 14.640496"
   version="1.1"
   id="svg8"
   inkscape:version="0.92.4 (5da689c313, 2019-01-14)"
   sodipodi:docname="station.svg">
  <defs
     id="defs2">
    <inkscape:perspective
       sodipodi:type="inkscape:persp3d"
       inkscape:vp_x="15.142842 : -4.8264201 : 1"
       inkscape:vp_y="0 : 1000.0002 : 0"
       inkscape:vp_z="37.321813 : -9.6592428 : 1"
       inkscape:persp3d-origin="13.763647 : 10.614999 : 1"
       id="perspective824" />
    <linearGradient
       id="linearGradient6291"
       osb:paint="solid">
      <stop
         style="stop-color:#ffffff;stop-opacity:1;"
         offset="0"
         id="stop6289" />
    </linearGradient>
  </defs>
  <sodipodi:namedview
     id="base"
     pagecolor="#ffffff"
     bordercolor="#666666"
     borderopacity="1.0"
     inkscape:pageopacity="0.0"
     inkscape:pageshadow="2"
     inkscape:zoom="2.0529932"
     inkscape:cx="-2.7228185"
     inkscape:cy="21.388971"
     inkscape:document-units="px"
     inkscape:current-layer="layer1"
     showgrid="false"
     inkscape:window-width="1244"
     inkscape:window-height="1048"
     inkscape:window-x="61"
     inkscape:window-y="0"
     inkscape:window-maximized="0"
     inkscape:snap-page="false"
     units="mm"
     scale-x="1e-05"
     fit-margin-top="0"
     fit-margin-left="0"
     fit-margin-right="0"
     fit-margin-bottom="0"
     inkscape:pagecheckerboard="true" />
  <metadata
     id="metadata5">
    <rdf:RDF>
      <cc:Work
         rdf:about="">
        <dc:format>image/svg+xml</dc:format>
        <dc:type
           rdf:resource="http://purl.org/dc/dcmitype/StillImage" />
        <dc:title></dc:title>
      </cc:Work>
    </rdf:RDF>
  </metadata>
  <g
     inkscape:groupmode="layer"
     id="layer2"
     inkscape:label="Board"
     transform="translate(-87.485252,-77.131334)" />
  <g
     inkscape:label="Layer 1"
     inkscape:groupmode="layer"
     id="layer1"
     transform="translate(-87.485252,-77.131334)">
    <g
       id="g1108"
       transform="matrix(0.21183841,0,0,0.21183841,75.957707,52.316016)"
       style="fill:#0000a0;fill-opacity:1">
      <path
         transform="matrix(0.26458,0,0,0.26458,84.791247,68.556254)"
         inkscape:connector-curvature="0"
         id="path1102"
         d="m 73.150045,183.65031 c -5.234316,0.59367 -11.355043,-1.01668 -16.069687,1.81228 -1.503246,3.33557 -0.305335,7.59001 -0.786975,11.23532 -0.08384,25.67397 -0.682951,51.38349 0.377967,77.03762 0.454699,3.39331 5.345725,1.96666 7.667543,2.50248 3.505822,0.87969 10.102003,-1.46012 11.459412,1.62205 1.388868,5.29118 -0.318768,7.64421 -5.869192,6.34821 -11.205658,0.38397 -22.578219,-0.79317 -33.691984,0.77227 -3.516347,1.62714 -1.54922,6.6446 -2.186307,9.57804 -0.574339,5.2419 1.076328,11.13658 -1.021172,16.04547 -2.66566,1.74117 -5.657858,-0.65662 -5.758396,-3.56402 -2.106786,-9.26561 -9.337815,-16.67164 -17.8878637,-20.46115 -4.5754197,-2.69027 -10.34059457,-0.78545 -15.4556492,-1.26333 -8.5108111,0.20909 -15.1953101,6.63554 -20.6468011,12.4976 -4.998425,-5.27017 -10.837934,-10.80655 -18.006802,-12.50529 -8.611988,-0.65421 -17.570222,0.6307 -25.985706,-1.41173 -2.29588,-1.80591 -1.306031,-6.80298 2.119035,-6.6087 2.333806,-0.99278 7.681541,0.92766 6.752284,-2.96796 0.09699,-24.13273 0.291402,-48.28728 0.325964,-72.40644 -3.993557,-4.00193 -10.397038,-1.66574 -15.367373,-2.4269 -7.187353,0.36982 -14.626451,-0.79109 -21.677391,0.78549 -4.375581,2.21367 -1.676651,7.85385 -2.410991,11.76031 0.26494,20.96937 -0.57643,41.98898 0.58526,62.92793 0.881061,3.22217 5.640238,1.25333 7.975641,2.4231 2.44189,0.95845 2.377261,5.00436 0.925648,6.77015 -7.072931,1.99507 -14.858779,-0.45629 -21.951859,1.43825 -1.93916,2.75002 -0.56344,6.82791 -1.17455,10.01126 -0.087,15.62861 -0.64892,31.34908 0.67002,46.92283 1.63261,3.91918 7.72795,0.83376 11.22349,1.81228 3.767124,0.54491 8.451436,-1.05439 11.742813,1.18935 0.798323,2.21757 0.820223,6.59385 -2.651821,6.15799 -2.399944,-0.0491 -6.25971,-0.68755 -6.541432,2.73658 -1.65347,14.90712 -0.42272,30.00439 -0.79763,44.98273 0.34789,9.35586 -0.61116,18.88642 0.83934,28.14751 2.383249,2.37787 6.656338,0.91461 9.691056,1.47593 9.197317,-0.18773 18.575114,0.60745 27.669885,-0.75882 2.02305,-3.30798 0.635683,-7.87934 1.192002,-11.59743 -0.13984,-21.20621 0.643318,-42.47324 -0.598671,-63.64243 -2.076022,-2.75351 -7.091142,0.17522 -9.288773,-2.45404 -0.92898,-2.28681 -0.742685,-6.20779 2.642403,-5.94137 11.308585,-1.16324 24.27962,2.0365 33.886165,-5.79662 3.022686,-2.13682 5.596309,-4.8118 8.076109,-7.54052 6.571279,7.67508 15.971036,13.80616 26.46562449,13.03704 2.53873881,0.15008 5.16794481,0.0304 7.25729561,-1.3615 6.8307299,-1.27558 12.2526409,-6.68114 16.4221879,-11.9675 2.177627,-3.1944 3.928682,-6.52595 4.355117,-10.43507 0.368234,-3.07102 5.427678,-2.95165 6.400161,-1.71944 0.440433,8.12796 -0.890606,16.55362 0.813978,24.52833 6.083233,1.57003 12.809904,0.66722 19.11014,1.098 7.252218,0.0778 14.504658,0.13484 21.756959,0.20437 0.263349,4.22244 1.810964,9.66575 -4.419697,7.72405 -4.563069,0.54181 -9.894961,-1.0937 -14.044834,1.28083 -1.912302,5.29151 -0.622146,11.35871 -1.125829,16.91191 0.145052,23.48931 -0.531996,47.0112 0.418141,70.48113 0.245115,4.77785 6.336394,3.54765 9.51346,3.76986 11.647027,-0.32548 23.41869,0.47243 34.99165,-0.87856 2.82833,-1.54981 1.20152,-5.86362 1.8489,-8.45169 0.20294,-26.42658 0.60395,-52.88214 -0.21153,-79.29653 0.257,-4.49123 -5.489498,-3.60577 -8.39406,-3.90306 -3.236803,-0.91849 -9.87147,1.52034 -10.805061,-1.63334 -1.191078,-5.2488 0.950536,-7.19395 6.199456,-6.05886 11.725115,-0.13411 23.484655,-0.14245 35.188325,-0.35744 2.89589,-3.85751 4.27472,-8.92283 7.65408,-12.33615 10.11954,-1.77135 20.67508,0.40325 30.79664,-1.41 1.97214,-3.46855 0.86399,-8.1654 1.44364,-12.024 1.64162,0.0119 5.64536,-1.36699 5.01841,1.72886 1.84354,9.35908 7.45343,17.9559 15.7293,22.85597 6.3393,4.40759 14.63236,5.47289 22.18192,4.82871 6.57892,-0.67813 12.14981,-4.75877 18.07032,-7.01905 11.35365,0.24454 22.87246,-0.52296 34.13731,0.56239 1.57017,3.07294 0.34272,6.93264 0.76151,10.26016 -5.01149,0.37877 -10.52074,-0.72115 -15.3028,0.88932 -1.55575,9.49531 -0.50578,19.33788 -0.87874,28.95611 0.26405,15.35056 -0.58707,30.78229 0.66347,46.08463 0.98609,2.09788 4.50064,0.50982 6.27101,1.21088 10.48415,0.0568 21.1756,0.73742 31.55007,-0.56777 1.60967,-7.05905 0.56527,-14.61366 0.94854,-21.84824 -0.20958,-17.67198 0.57144,-35.40304 -0.58259,-53.03912 -0.73504,-2.49384 -4.60232,-1.02885 -6.48328,-1.63998 -2.85331,-0.48317 -7.46099,0.9111 -9.09801,-0.73468 0.74774,-2.95621 -1.40087,-7.47321 1.29698,-9.68298 4.3994,-1.27705 9.56138,0.50161 13.77037,-1.21223 1.5102,-9.2518 0.40515,-18.83843 0.77173,-28.20535 -0.32304,-7.77269 0.56085,-15.78913 -0.86053,-23.42779 -4.74623,-1.60273 -10.0481,-0.47485 -14.97855,-0.84627 0.68123,-3.23072 -1.29734,-7.69165 1.18128,-10.31532 4.54237,-1.64246 10.07973,1.08849 14.27758,-1.45171 1.69509,-5.56213 0.54874,-11.78123 0.97142,-17.56445 -0.2686,-18.68277 0.40284,-37.42486 -0.76557,-56.07168 -0.74601,-3.57735 -5.72472,-2.12916 -8.29564,-2.64856 -9.43624,0.20738 -19.06492,-0.88753 -28.39528,0.58604 -4.58097,2.08463 -1.88635,7.89952 -2.59397,11.84507 0.2846,20.96304 -0.62399,41.98715 0.65926,62.91313 1.24202,3.22911 5.96364,1.47292 8.55955,1.9401 2.45912,0.0811 7.36327,-0.79196 7.26257,3.00297 -0.55669,2.59845 1.92759,8.46361 -2.01543,7.76441 -11.6634,-0.24217 -23.59659,0.47994 -35.09346,-0.35747 -6.14261,-4.54625 -13.65426,-6.82036 -21.29305,-6.18472 -10.91028,-0.86738 -21.09153,6.08395 -27.06445,14.76001 -2.17983,2.99606 -3.46752,6.54192 -4.55558,9.9561 -1.46552,1.38443 -0.0944,4.87967 -2.8819,5.12201 -3.90576,0.82635 -3.36395,-3.91069 -3.28551,-6.32616 -0.44704,-2.00662 0.99952,-6.95715 -2.50248,-6.66789 -10.00484,-0.75326 -20.04742,-0.7073 -30.07146,-1.001 -2.47331,-3.75071 -3.82739,-8.67958 -7.11322,-11.7455 -13.6697,-1.53282 -27.522263,-0.80555 -41.261315,-1.34273 0.149475,-2.18555 -1.357656,-6.06316 1.011756,-7.42672 5.733735,-1.01832 11.91513,0.73169 17.452779,-1.08575 1.53631,-3.53667 0.38569,-7.96873 0.88295,-11.80293 0.22978,-25.605 0.71805,-51.24151 -0.12279,-76.83192 -1.39748,-3.71097 -6.610908,-2.41681 -9.692112,-2.95434 -6.622069,-0.18141 -13.24836,-0.11729 -19.872123,-0.11322 z m -3.849243,7.76173 c 5.380367,-1.01499 8.236557,0.4249 6.63796,6.19728 -0.381591,3.68307 1.496667,9.61291 -4.345735,7.86649 -2.637562,-0.3732 -6.557316,1.12398 -8.545736,-1.05492 -0.977753,-4.24162 -0.378512,-8.68927 -0.559694,-13.00885 2.27107,0 4.542134,0 6.813205,0 z m 20.321207,0 c 5.404539,-1.15016 7.781914,0.64375 6.293533,6.19728 -0.381597,3.68301 1.496681,9.61331 -4.345762,7.86556 -2.642522,-0.29889 -8.16728,1.68575 -8.308915,-2.61602 -0.235753,-3.80912 -0.04371,-7.6326 -0.107633,-11.44682 2.156259,0 4.312518,0 6.468777,0 z m -157.527033,20.8957 c 1.940015,6.15969 -3.136513,5.30285 -7.577399,5.08164 -6.183734,-0.39256 -12.744867,0.75518 -18.744377,-0.77227 -0.633169,-2.93513 -0.01331,-6.03823 -0.0054,-9.01834 8.77572,-0.12372 17.55144,-0.2475 26.327158,-0.37133 0,1.69343 0,3.38686 0,5.0803 z M 264.2224,207.25569 c 4.32956,0 8.65912,0 12.98868,0 -1.04815,3.01861 2.28273,10.41624 -2.06656,10.13369 -7.97026,0 -15.94053,0 -23.91079,0 1.04815,-3.0186 -2.28273,-10.41624 2.06656,-10.13369 3.64071,0 7.28141,0 10.92211,0 z M 95.894346,219.35504 c 0.401348,4.79285 0.313856,9.10009 -5.701566,7.51859 -2.055018,-0.35514 -5.458097,0.98703 -6.804098,-0.96505 -0.351378,-4.48917 0.03324,-8.99602 0.106283,-13.48917 4.197294,-0.12959 8.394547,-0.2601 12.591778,-0.39152 -0.06413,2.44238 -0.128264,4.88477 -0.192397,7.32715 z m -19.97678,0 c 0.401395,4.79438 0.313904,9.1017 -5.702076,7.50255 -2.254173,-0.36118 -5.673357,0.86775 -7.297359,-0.95439 -0.77377,-4.41805 -0.02751,-9.00837 -0.0888,-13.48379 4.426889,-0.12987 8.853764,-0.25993 13.280632,-0.39017 -0.06413,2.44193 -0.128265,4.88387 -0.192397,7.3258 z m -152.925695,4.43181 c 2.7422,0.40037 6.168393,-0.51672 8.593191,0.89336 0.965139,3.3158 0.05568,6.88345 0.169523,10.27631 -8.45252,-0.29424 -17.211406,1.12737 -25.506453,-0.43323 -1.14386,-3.04339 -1.216145,-6.96197 0.01749,-9.96551 5.430824,-1.00601 11.189819,-0.6729 16.726248,-0.77093 z m 341.230529,0.34577 c 4.21475,0 8.4295,0 12.64425,0 -1.01306,3.29882 2.24231,10.80263 -2.06633,10.85484 -7.67303,-0.2851 -15.64685,1.02859 -23.167,-0.38479 -0.76065,-3.37593 -0.0152,-7.01838 -0.0592,-10.47005 4.21609,0 8.43219,0 12.64828,0 z M 96.042347,241.22886 c 0.586849,4.81012 0.472685,8.91923 -5.510836,7.15898 -2.145114,-0.45415 -5.708482,0.83717 -7.152246,-1.14226 -0.340121,-4.25403 0.04016,-8.52524 0.1157,-12.78283 4.18247,-0.12992 8.364926,-0.25998 12.547382,-0.39017 0,2.38543 0,4.77085 0,7.15628 z m -19.976781,0 c 0.586849,4.81012 0.472685,8.91923 -5.510836,7.15898 -2.380943,-0.48017 -6.157711,0.89211 -7.841099,-1.14226 -0.340122,-4.25403 0.04016,-8.52524 0.1157,-12.78283 4.412064,-0.13019 8.824143,-0.2598 13.236235,-0.38883 0,2.38498 0,4.76996 0,7.15494 z m -144.113204,6.37863 c 1.655892,6.13634 -3.187938,5.62088 -7.774384,5.36882 -6.068932,-0.32013 -12.492802,0.96848 -18.396706,-0.5132 -0.647094,-3.17341 -0.01246,-6.51393 -0.01211,-9.73276 8.793211,-0.12369 17.58642,-0.24747 26.379629,-0.37134 -0.06548,1.7495 -0.130954,3.49899 -0.196431,5.24848 z M 264.252,242.38727 c 4.33763,0 8.67527,0 13.01289,0 -1.14632,3.16909 1.86061,10.58783 -2.46053,10.51054 -7.66375,-0.15043 -15.71818,0.78821 -23.19391,-0.2571 -0.61411,-3.3765 -0.28287,-6.84172 -0.37672,-10.25344 4.33942,0 8.67885,0 13.01827,0 z M 96.042347,262.58335 c 0.586849,4.81012 0.472685,8.91923 -5.510836,7.15898 -2.145128,-0.45351 -5.708641,0.83738 -7.152246,-1.14226 -0.340142,-4.25404 0.04024,-8.52524 0.1157,-12.78283 4.18247,-0.12992 8.364926,-0.25998 12.547382,-0.39017 0,2.38543 0,4.77085 0,7.15628 z m -19.976781,0 c 0.586849,4.81012 0.472685,8.91923 -5.510836,7.15898 -2.380943,-0.48017 -6.157711,0.89211 -7.841099,-1.14226 -0.340122,-4.25404 0.04016,-8.52524 0.1157,-12.78283 4.412064,-0.13019 8.824143,-0.2598 13.236235,-0.38883 0,2.38498 0,4.76996 0,7.15494 z m -143.97059,2.76619 c 1.940015,6.15969 -3.136513,5.30285 -7.577399,5.08164 -6.183734,-0.39256 -12.744867,0.75518 -18.744377,-0.77227 -0.633169,-2.93514 -0.01331,-6.03823 -0.0054,-9.01834 8.77572,-0.12372 17.55144,-0.2475 26.327158,-0.37134 0,1.69344 0,3.38687 0,5.08031 z M 264.2224,260.29748 c 4.32956,0 8.65912,0 12.98868,0 -1.04815,3.01861 2.28273,10.41625 -2.06656,10.1337 -7.97026,0 -15.94053,0 -23.91079,0 1.04815,-3.01861 -2.28273,-10.41624 2.06656,-10.1337 3.64071,0 7.28141,0 10.92211,0 z m -345.666375,16.70876 c 2.624316,-0.46663 3.807324,1.84225 3.067555,4.10757 0.345664,2.08151 -0.634993,4.32106 -3.122717,3.70663 -3.221714,0.0866 -1.965146,-4.7694 -1.691191,-6.72575 0.256551,-0.73628 0.964379,-1.12257 1.746353,-1.08845 z m 284.658355,10.25882 c 7.00442,-0.0376 13.57853,3.13381 18.88834,7.54377 0,12.97567 0,25.95134 0,38.927 -6.95151,6.95801 -17.69176,8.908 -27.01063,6.62081 0.17461,-16.93985 -0.85825,-33.93916 0.19912,-50.84608 0.81358,-2.58638 4.77698,-1.6248 6.81455,-2.22128 0.36921,-0.0231 0.73901,-0.0191 1.10862,-0.0242 z m -306.15142,4.03088 c 6.320811,-1.99126 4.596646,4.06247 4.722418,8.26625 0,12.79224 0,25.58449 0,38.37673 -2.915668,-0.23857 -6.344218,0.46248 -9.033138,-0.54624 -0.71817,-15.34996 -0.28802,-30.73344 -0.4117,-46.09674 1.57414,0 3.14828,0 4.72242,0 z m 149.407426,0 c 2.067783,0.36463 6.988657,-1.05959 6.627532,2.5092 0.346039,14.26709 0.550814,28.6605 -0.469551,42.86236 -2.155502,2.4051 -6.20733,0.83258 -9.066779,1.19204 -1.60116,0.0666 -3.584089,-0.0135 -2.836145,-2.27645 -0.460382,-14.75737 -0.217581,-29.52515 -0.28119,-44.28715 2.008713,0 4.01742,0 6.026133,0 z m 44.043635,0 c 10.273619,0 20.547239,0 30.820859,0 2.62652,5.49519 6.99875,10.55854 5.70592,17.02358 -0.22859,6.41074 0.45512,13.05311 -0.32863,19.32288 -2.06566,3.03953 -3.174,7.17542 -5.81186,9.66687 -18.64489,1.19945 -37.397106,0.49384 -56.079501,0.4077 -1.703475,-0.47984 -5.710142,1.11765 -4.80744,-2.13388 -0.460382,-14.75737 -0.217581,-29.52515 -0.28119,-44.28715 10.260611,0 20.52123,0 30.781842,0 z m -175.396887,0.10763 c 5.545177,0.011 11.088966,0.15801 16.633415,0.23545 0,15.31894 0,30.63788 0,45.95682 -7.532486,-0.29192 -15.35765,1.11952 -22.744307,-0.43322 -1.256369,-14.45305 -0.966879,-29.14429 -0.48166,-43.6723 -0.342048,-3.33609 4.86141,-1.4673 6.592552,-2.08675 z m 27.41022,0.23679 c 6.037561,-1.82281 2.967057,5.46245 3.689139,8.95511 0,12.3348 0,24.6696 0,37.0044 -2.182827,-0.44088 -5.823758,1.36671 -7.432094,-0.6162 -0.417372,-15.1095 0.01973,-30.23013 0.05247,-45.34331 1.230161,0 2.460323,0 3.690484,0 z m 55.7972145,0 c 10.4170092,-0.72404 20.5099395,7.5485 22.7106715,17.56176 0.623365,6.60137 0.644706,13.81357 -3.86539,19.18298 -2.99073,3.79686 -7.3683663,7.00619 -12.0562967,8.18957 -4.85435764,2.37475 -10.8988836,1.18782 -15.8100163,-0.78976 -7.658347,-3.19952 -13.916198,-10.93881 -12.914334,-19.57988 -0.388755,-6.60267 0.424727,-14.05987 6.150912,-18.31519 4.160826,-4.33194 9.7785791,-6.56872 15.7844535,-6.24948 z m -44.0517075,0.3525 c 6.638745,2.24247 11.974736,7.16136 15.250825,13.31755 0.862659,5.50474 0.580615,11.61096 0.100407,17.32303 -2.180024,6.48503 -8.015724,11.7786 -14.406744,14.00043 -2.355228,-1.57676 -1.010921,-5.6123 -1.535126,-8.05638 0.118242,-12.15298 -0.470777,-24.5686 0.590638,-36.58463 z m 232.867799,1.53916 c 1.97993,1.77485 0.59119,5.52085 1.10594,7.93125 -0.31055,11.11783 0.52702,22.41142 -0.87722,33.42558 -0.76568,2.35792 -3.05108,-1.09596 -3.86942,-1.75442 -8.88388,-9.34817 -10.07598,-25.24637 -1.57517,-35.24011 1.47149,-1.60587 2.97766,-3.85238 5.21587,-4.3623 z m 65.71564,0.86376 c 8.00345,0 16.0069,0 24.01035,0 0,13.25193 0,26.50386 0,39.75579 -16.12798,0.12042 -32.25596,0.24016 -48.38395,0.35923 0.11995,-13.37168 0.24059,-26.74335 0.36191,-40.11502 8.0039,0 16.0078,0 24.01169,0 z m -107.09804,9.98839 c 3.86816,0.45814 9.60474,-0.91751 12.30308,0.68874 -0.12104,6.47824 -0.24285,12.95647 -0.36517,19.43469 -8.08552,0.12464 -16.17104,0.24932 -24.25656,0.37403 0,-6.83249 0,-13.66497 0,-20.49746 4.10622,0 8.21244,0 12.31865,0 z m -226.651959,40.29799 c 3.91011,-1.30111 3.571675,8.97484 -0.904501,6.96242 -2.819056,2.11524 -2.475094,-9.52641 0.904501,-6.96242 z m -5.127391,13.55106 c 5.924533,0.002 11.847784,0.15091 17.771639,0.22469 -1.047882,3.03499 2.282326,10.38447 -2.066343,10.16661 -7.92897,-0.085 -16.040116,0.67654 -23.877371,-0.19033 -0.611064,-3.06472 -0.804945,-6.87625 0.67271,-9.66549 2.42334,-0.65778 5.013911,-0.42284 7.499365,-0.53548 z m 350.24349,0.22603 c 4.21475,0 8.4295,0 12.64425,0 -1.04784,3.03493 2.2822,10.38269 -2.06633,10.16598 -7.67492,-0.29894 -15.62437,1.04611 -23.16566,-0.38613 -0.77328,-3.13987 -0.0124,-6.56316 -0.0605,-9.77985 4.21609,0 8.43219,0 12.64828,0 z m -196.650465,0.4561 c 2.931097,0.70687 9.370385,-1.85397 8.224379,2.98453 -0.377713,3.70812 1.189583,9.30864 -0.375205,11.85948 -4.000296,-0.56577 -8.791017,1.03891 -12.451851,-0.87991 -0.878786,-4.31064 -0.826922,-9.14611 0.45206,-13.35598 1.228944,-0.66203 2.786899,-0.50056 4.150617,-0.60812 z m 22.025854,0.23275 c 5.790504,-1.49898 7.086928,1.61597 6.284103,6.88617 0.180142,4.24938 1.548793,9.65579 -4.61713,7.72509 -2.391,-0.47492 -6.220466,0.93081 -7.884153,-1.1463 -0.339792,-4.48162 0.04117,-8.97977 0.114356,-13.46496 2.034277,0 4.068547,0 6.102824,0 z m -157.502813,22.27342 c 1.83968,6.17417 -2.836648,5.83233 -7.577399,5.42607 -6.182168,-0.42351 -12.829821,0.81319 -18.783394,-0.82205 -0.537115,-3.17959 -6.6e-4,-6.4532 0.03498,-9.65742 8.775271,-0.12373 17.550541,-0.2475 26.325812,-0.37133 0,1.80824 0,3.61649 10e-7,5.42473 z M 264.2224,376.02504 c 4.32956,0 8.65912,0 12.98868,0 -1.01333,3.28305 2.2428,10.83555 -2.06656,10.82255 -7.97026,0 -15.94053,0 -23.91079,0 1.01332,-3.28304 -2.2428,-10.83555 2.06656,-10.82255 3.64071,0 7.28141,0 10.92211,0 z m -168.328054,11.4105 c 0.35806,4.71906 0.384126,9.10798 -5.610396,7.51013 -2.180755,-0.41582 -7.070946,1.30592 -6.938321,-2.30202 -0.246872,-4.04472 0.09621,-8.09741 0.149336,-12.14375 4.197294,-0.12959 8.394547,-0.26009 12.591778,-0.39151 -0.06413,2.44238 -0.128264,4.88476 -0.192397,7.32715 z m -19.784383,-7.27737 c -0.129532,4.87129 -0.258238,9.7426 -0.38613,14.61394 -4.116678,-0.16045 -8.583672,0.67613 -12.552762,-0.24756 -0.75484,-4.39829 -1.381628,-9.44044 0.0054,-13.72596 4.041227,-1.36055 8.738016,-0.26527 12.933512,-0.64042 z m -157.348089,14.12151 c 4.330904,0 8.661807,0 12.992711,0 -0.910569,3.15175 2.662524,10.62335 -1.672356,10.47813 -8.037703,-0.39286 -16.376497,0.78743 -24.257903,-0.72249 -0.779487,-3.12217 0.0062,-6.55323 -0.05516,-9.75564 4.330903,0 8.661807,0 12.99271,0 z m 345.460526,0 c 4.2161,0 8.4322,0 12.64829,0 -0.91057,3.15175 2.66252,10.62335 -1.67236,10.47813 -8.00614,0 -16.01228,0 -24.01841,0 1.14655,-3.15302 -1.8611,-10.62117 2.46076,-10.47813 3.52724,0 7.05449,0 10.58172,0 z M 76.065566,409.30936 c 0.586849,4.81012 0.472685,8.91923 -5.510836,7.15897 -2.380943,-0.48016 -6.157711,0.89212 -7.841099,-1.14225 -0.340122,-4.25404 0.04016,-8.52525 0.1157,-12.78284 4.412064,-0.13018 8.824143,-0.25979 13.236235,-0.38882 0,2.38498 0,4.76996 0,7.15494 z m 13.532223,-7.10785 c 5.373816,-1.15907 7.771856,0.65764 6.444558,6.19969 -0.347824,3.71893 1.87119,10.0047 -4.133127,8.06713 -3.344912,-0.72184 -10.440424,2.30692 -8.755988,-3.44427 0.842276,-3.22448 -1.761587,-9.8951 1.377709,-10.82255 1.688947,0 3.377901,0 5.066848,0 z m -175.618879,9.07351 c 5.924533,0.002 11.847784,0.15091 17.771639,0.22468 -1.01309,3.29933 2.242403,10.8034 -2.066329,10.85638 -7.764037,-0.28194 -15.83599,1.06222 -23.441469,-0.4684 -1.167811,-3.0474 -1.308969,-7.09303 0.157414,-10.03683 2.420344,-0.73327 5.079783,-0.44365 7.578745,-0.57583 z m 350.24349,0.22603 c 4.21475,0 8.4295,0 12.64425,0 -1.01306,3.29881 2.24231,10.80263 -2.06633,10.85483 -7.67303,-0.2851 -15.64685,1.02859 -23.167,-0.38478 -0.76065,-3.37594 -0.0152,-7.01839 -0.0592,-10.47005 4.21609,0 8.43219,0 12.64828,0 z m -168.180053,19.1628 c 0.586849,4.81012 0.472685,8.91922 -5.510836,7.15897 -2.145128,-0.4535 -5.708641,0.83739 -7.152246,-1.14225 -0.340142,-4.25404 0.04024,-8.52525 0.1157,-12.78284 4.18247,-0.12991 8.364926,-0.25997 12.547382,-0.39016 0,2.38542 0,4.77085 0,7.15628 z m -19.976781,0 c 0.586849,4.81012 0.472685,8.91922 -5.510836,7.15897 -2.380943,-0.48016 -6.157711,0.89212 -7.841099,-1.14225 -0.340122,-4.25404 0.04016,-8.52525 0.1157,-12.78284 4.412064,-0.13018 8.824143,-0.25979 13.236235,-0.38882 0,2.38498 0,4.76996 0,7.15494 z"
         style="opacity:1;fill:#0000a0;fill-opacity:1;stroke:none;stroke-width:0.73845202;stroke-miterlimit:4;stroke-dasharray:none;stroke-opacity:1" />
      <path
         transform="matrix(0.26458,0,0,0.26458,84.791247,68.556254)"
         inkscape:connector-curvature="0"
         id="path1104"
         d="m -1.2475881,302.94457 c -8.8174729,-0.0781 -14.2691159,11.68735 -8.6026089,18.47126 4.8972034,8.05559 18.4139021,5.68015 20.888974,-3.12675 2.482672,-7.7402 -4.1204938,-16.11691 -12.2863651,-15.34451 z m 0.94986557,6.26158 c 4.74199233,-0.14617 7.58797683,7.33906 2.88054223,9.63993 -3.9014453,3.49758 -10.5828482,-2.30991 -7.4872567,-6.66655 0.9254995,-1.67044 2.6453625,-2.97374 4.60671447,-2.97338 z"
         style="opacity:1;fill:#0000a0;fill-opacity:1;stroke:none;stroke-width:0.73845202;stroke-miterlimit:4;stroke-dasharray:none;stroke-opacity:1" />
    </g>
  </g>
</svg>
